<?xml version="1.0" encoding="utf-8"?>
<!-- Generator: Adobe Illustrator 23.0.3, SVG Export Plug-In . SVG Version: 6.00 Build 0)  -->
<svg version="1.1" id="Capa_1" xmlns="http://www.w3.org/2000/svg" xmlns:xlink="http://www.w3.org/1999/xlink" x="0px" y="0px"
	 viewBox="0 0 325.98 325.98" style="enable-background:new 0 0 325.98 325.98;" xml:space="preserve">
<style type="text/css">
	.st0{opacity:0.9921;fill:none;stroke:#020505;stroke-width:18.5006;stroke-linecap:square;stroke-linejoin:bevel;}
	.st1{fill:#3D9DD5;}
	.st2{fill:none;stroke:#3D9DD5;stroke-width:0.6008;}
	.st3{fill:none;stroke:#FFFFFF;stroke-width:1.3489;stroke-linecap:round;stroke-linejoin:bevel;}
	.st4{fill:#FFFFFF;}
	.st5{font-family:'SimSun';}
	.st6{font-size:15.9439px;}
	.st7{font-size:16.1334px;}
	.st8{font-size:16.1017px;}
	.st9{font-size:15.9884px;}
	.st10{font-size:15.9639px;}
	.st11{fill:none;stroke:#FFFFFF;stroke-width:1.3493;stroke-linecap:round;stroke-linejoin:bevel;}
	.st12{fill:#FFFFFF;stroke:#FFFFFF;stroke-width:0.75;stroke-miterlimit:10;}
	.st13{font-size:40.3842px;}
	.st14{font-size:51.6095px;}
	.st15{font-size:42.4661px;}
</style>
<path class="st0" d="M41.62,107.83c-12.56,27.9-15.29,65.06-6.48,96.56 M297.4,186.06c2.56-14.89,3.51-35.69-3.05-59.2
	c-20.05-71.72-94.43-113.6-166.14-93.55c-24.71,6.91-45.79,20.23-62.04,37.6 M64.83,253.77c1.47,1.66,1.82,1.91,3.36,3.48
	c34.23,35.12,85.04,49,132.62,35.77c25.52-7.13,47.26-21.15,63.77-39.48"/>
<path d="M183.18,169.72c-2.76-0.98-8.02-3.83-11.84-6.39l-0.87-0.59l0.77-0.15c2.11-0.43,6.02-2.35,9.05-4.45l1.64-1.14l0.72,0.91
	l0.72,0.91l3.68-3.81c4.04-4.18,5.67-5.64,6.64-5.94c0.59-0.18,3.82,0.24,4.09,0.54c0.16,0.17-3.58,7.83-5.44,11.14
	c-2.25,4.01-4.7,7.96-5.31,8.57c-0.55,0.54-1.41,0.93-2.03,0.92C184.78,170.23,183.95,170,183.18,169.72z M297,200.79
	c0-0.18,0.09-0.32,0.2-0.32c0.11,0,0.2,0.15,0.2,0.32c0,0.18-0.09,0.32-0.2,0.32C297.09,201.12,297,200.97,297,200.79z
	 M208.18,137.6c0.14-0.14,0.24-0.84,0.24-1.6v-1.34l-1.12-0.07c-0.61-0.04-1.14-0.04-1.18,0.01s0.07,0.46,0.24,0.93
	c0.19,0.51,0.27,1.14,0.2,1.59c-0.11,0.74-0.11,0.75,0.63,0.75C207.61,137.85,208.05,137.74,208.18,137.6z M146.38,212.94
	c-2.98-1.14-6.7-3.99-9.98-7.65c-4.56-5.08-6.7-10.09-6.92-16.25c-0.16-4.23,0.18-6.43,2.24-14.92c0.71-2.91,2.1-9.31,3.09-14.23
	c1.98-9.88,2.47-11.98,3.39-14.74c1.24-3.69,4.37-7.83,7.11-9.4c1.64-0.94,2.77-1.31,5.43-1.8c1.99-0.36,2.45-0.53,3.36-1.2
	c1.26-0.94,2.25-2.46,2.25-3.46c0-0.39-0.18-1.75-0.41-3.01c-0.47-2.66-0.55-5.75-0.2-7.45c0.43-2.02,1.48-4.12,2.74-5.47
	c2.92-3.14,7.81-4.19,12.14-2.62c4.98,1.8,7.49,5.26,7.55,10.36c0.02,1.52-0.06,1.91-0.63,3.21c-0.95,2.18-0.97,2.73-0.24,4.88
	c0.91,2.68,0.57,3.89-1.13,3.89c-0.9,0-1.27,0.37-1.27,1.25c0,0.23-0.19,0.68-0.42,0.99c-0.23,0.32-0.58,1.16-0.78,1.86
	c-0.41,1.47-1.07,2.71-1.6,3.02c-0.61,0.36-2.02,0.24-3.75-0.3c-0.9-0.29-1.64-0.47-1.64-0.42c0,0.53,0.82,1.48,1.84,2.14
	c1.32,0.85,5.14,3.98,5.14,4.2c0,0.07-1.1,0.67-2.44,1.32l-2.45,1.2l-0.96-0.52c-1.78-0.96-8.8-5.8-12.35-8.52
	c-1.06-0.81-1.98-1.48-2.05-1.48c-0.07,0,0.48,0.61,1.21,1.35c2.34,2.38,6.75,5.61,11.97,8.77l2.21,1.34l2.48-1.28
	c2.04-1.06,10.43-4.73,18.28-8c1.29-0.54,2-1.02,3.39-2.31c1.81-1.68,4.82-3.96,5.22-3.96c0.13,0,0.23-0.11,0.23-0.24
	s-0.14-0.18-0.32-0.11c-0.48,0.2-1.68-0.09-1.81-0.44c-0.06-0.17-0.04-0.84,0.03-1.5c0.16-1.39,0.63-2.03,1.5-2.03
	c0.47,0,0.57-0.07,0.47-0.36c-0.08-0.22,0.02-0.47,0.24-0.65c0.49-0.39,0.55-0.38,1.17,0.25l0.54,0.54h9.13
	c8.95,0,9.14-0.01,9.57-0.45c0.55-0.55,1.33-0.48,1.33,0.12c0,0.27,0.23,0.56,0.6,0.76c0.33,0.18,0.68,0.57,0.77,0.87
	c0.24,0.75-0.35,2.89-0.97,3.57l-0.48,0.52h-9.91l-0.33,1.51c-0.18,0.83-0.52,1.8-0.75,2.14c-0.53,0.8-1.58,1.18-2.83,1.02
	c-0.86-0.11-0.97-0.08-0.97,0.29c0,0.23-0.17,0.54-0.38,0.7c-0.38,0.29-0.75,1.54-1.34,4.58c-0.23,1.19-0.47,1.85-0.79,2.17
	c-0.52,0.52-4.25,1.85-5.17,1.84c-0.33,0-1.23-0.15-1.99-0.32c-2.27-0.52-2.81-0.45-4.54,0.62c-0.84,0.52-3.54,2.45-5.98,4.28
	c-5.38,4.03-6.59,4.86-9.13,6.23c-4.68,2.53-6.46,2.74-11.38,1.34c-6.57-1.87-12.79-4.18-16.46-6.12c-1.75-0.92-1.91-0.97-1.3-0.42
	c2.93,2.67,11.2,6.32,17.8,7.88l0.54,0.13l-0.61,1.89c-0.34,1.04-0.88,2.61-1.21,3.5c-0.62,1.68-3.04,7.03-3.4,7.5
	c-0.29,0.38-0.01,0.34,1.36-0.18c5.96-2.26,17.3-3.93,20.63-3.04c2.76,0.73,4.69,2.32,5.19,4.25c0.36,1.4,0.14,4.93-0.47,7.32
	c-0.44,1.73-3.25,9.96-3.74,10.95c-0.16,0.32-0.46,0.39-1.76,0.39c-1.08,0-2.1,0.17-3.29,0.54c-2.83,0.89-3.85,1.55-8.59,5.59
	c-0.77,0.66-1.46,1.2-1.53,1.2c-0.34,0.03,1.8-7.66,3.05-10.97c0.43-1.14,0.78-2.09,0.78-2.11c0-0.02-0.43,0.08-0.95,0.23
	c-0.52,0.15-2.16,1.02-3.64,1.94c-1.48,0.91-3.44,2.05-4.36,2.53c-1.93,1-5.3,2.23-6.65,2.42l-0.93,0.13l-1.48-2.42
	c-0.81-1.33-2.09-3.54-2.84-4.91c-1.55-2.83-1.86-3.28-1.38-2.05c0.8,2.09,3.05,6.68,5.06,10.35c2.93,5.34,4.2,8.13,4.51,9.95
	c0.2,1.14-0.73,2.07-3.59,3.57C151.09,213.36,148.74,213.85,146.38,212.94z M43.54,85.44c0-0.57,0.07-1.25,0.16-1.51
	c0.13-0.39,0.09-0.48-0.21-0.48c-0.77,0-1.25,0.61-1.25,1.6c0,0.75,0.09,0.97,0.45,1.16C43.44,86.6,43.54,86.51,43.54,85.44z
	 M94.61,217.92c-2.25-0.65-5.58-1.25-8.53-1.53l-2.75-0.26v-0.69c0-1.91,0.71-9.76,1.42-15.62c0.6-5.03,0.84-7.88,0.98-11.99
	c0.52-14.91,1.82-29.24,3.89-42.64c1.7-11.03,1.85-13.68,1.97-33.9c0.06-10.57,0.03-15.27-0.09-13.71c-0.1,1.3-0.23,2.59-0.29,2.86
	l-0.11,0.49h-6.89c-3.79,0-7.76-0.11-8.82-0.23c-2.89-0.34-7.04-1.53-14.11-4.03c-3.65-1.29-4.13-1.36-7.48-1.05
	c-1.64,0.15-2.15,0.11-3.77-0.31c-2.22-0.57-2.63-0.93-3.11-2.72c-0.18-0.7-0.46-1.59-0.62-1.98c-0.15-0.39-0.28-1-0.28-1.35
	c0-0.4-0.1-0.64-0.27-0.64c-0.15,0-0.39-0.14-0.52-0.32c-0.17-0.22-0.62-0.32-1.37-0.32c-1.95,0-3.09-1.26-3.36-3.68l-0.12-1.07
	l-6.21,0c-4.54,0-6.34-0.07-6.7-0.27c-0.68-0.36-1.21-1.64-1.34-3.18c-0.11-1.26-0.1-1.29,0.52-1.67c0.34-0.21,0.63-0.55,0.63-0.76
	c0-0.21,0.14-0.38,0.3-0.38s0.3-0.1,0.3-0.22s0.14-0.21,0.31-0.21c0.36,0,0.88,0.5,0.88,0.85c0,0.16,3.42,0.23,11.37,0.23
	c9.01,0,11.37-0.05,11.37-0.27c0-0.15,0.18-0.39,0.39-0.53c0.32-0.22,0.46-0.19,0.84,0.14c0.39,0.34,0.42,0.45,0.19,0.75
	c-0.24,0.31-0.18,0.35,0.52,0.35c1.13,0,1.43,0.34,1.66,1.83c0.25,1.64,0.25,1.53-0.12,1.93c-0.18,0.2-0.65,0.34-1.13,0.34h-0.81
	l1.63,1.06c0.89,0.58,2.24,1.55,3,2.16l1.37,1.1l3.27,0.55c4.69,0.78,12.62,1.83,13.87,1.83c1.27,0,6.61-1.18,10.75-2.38
	c6.21-1.8,7.55-2.05,13.29-2.51l1.32-0.11l0.11-0.89c0.14-1.18-0.08-1.57-1.1-1.85c-1.61-0.44-2.59-1.98-3.32-5.21
	c-0.68-3.02-0.89-5.45-0.77-8.96c0.13-3.43,0.42-5.07,1.26-6.85c1.48-3.17,3.99-4.48,8.58-4.5c3.78-0.01,5.89,0.67,7.63,2.47
	c1.68,1.74,2.49,4.25,2.49,7.7c-0.01,2.92-0.37,4.38-1.91,7.77l-1.23,2.7l0.02,2.16c0.01,1.5,0.13,2.52,0.39,3.34l0.38,1.18
	l3.59,1.75c4.52,2.2,6.23,3.2,7.47,4.37c3.1,2.93,4.37,8.03,7.22,28.99c0.95,6.98,1.04,9.53,0.51,14.14
	c-1.04,9-1.75,15.84-2.04,19.54c-0.18,2.31-0.45,4.84-0.61,5.6c-0.63,3.01-2.04,5.13-4.68,7.04c-1.66,1.2-2.25,1.44-2.86,1.19
	c-0.82-0.34-0.86-1.68-0.11-3.61c0.46-1.16,0.66-2.66,0.48-3.54c-0.18-0.89-0.4-0.51-0.59,1.01c-0.15,1.23-0.68,2.31-1.3,2.67
	c-0.48,0.28-0.46,0.32-0.9-1.79c-0.39-1.88-0.39-4.45,0-6.09c0.34-1.44,1.36-3.88,2.38-5.7l0.68-1.2l0.24-9.26
	c0.34-12.86,0.41-12.04-1.68-18.73c-0.95-3.04-1.72-5.69-1.72-5.88c0-0.19-0.08-0.35-0.17-0.35s-0.17,0.27-0.16,0.59
	c0,0.32-0.23,2.2-0.52,4.16c-1.44,9.61-1.47,13.74-0.17,22.13c0.44,2.85,0.91,6.2,1.04,7.45c0.23,2.13,0.22,2.32-0.16,3.13
	c-1.41,3.04-1.72,7.68-0.72,10.9c0.29,0.93,0.5,1.25,0.98,1.48c0.52,0.25,0.64,0.48,0.86,1.51c0.46,2.23,1.2,7.83,1.92,14.5
	c0.39,3.62,0.93,7.9,1.2,9.5c1.18,7.03,1.91,13.46,2.21,19.24l0.14,2.72l-0.48,0.13c-0.55,0.15-2.66,1.46-5.38,3.33
	c-1.05,0.73-2.44,1.51-3.09,1.74c-1.33,0.48-3.47,0.81-3.48,0.54c0-0.83-0.98-8.06-1.79-13.25c-0.55-3.5-1.32-8.55-1.71-11.22
	c-0.48-3.24-1.27-7.26-2.38-12.09c-0.92-3.98-2.12-9.42-2.67-12.09c-0.55-2.67-1.14-5.39-1.32-6.05c-0.63-2.36-2.14-7.15-2.21-7.06
	c-0.05,0.05,0.34,1.78,0.85,3.84c1.17,4.74,1.18,4.77,0.78,6.93c-0.52,2.82-2.46,11.8-3.4,15.72c-0.78,3.27-0.87,3.93-1.09,7.99
	c-0.38,7.07-0.97,13.24-2.21,22.82c-0.33,2.52-0.59,5.07-0.59,5.67C96.7,218.56,96.75,218.55,94.61,217.92z M236.95,200.81
	c0-0.29,0.05-0.68,0.12-0.86c0.11-0.3-0.37-0.34-4.47-0.34H228l-0.13,0.64c-0.07,0.35-0.07,0.74,0,0.86
	c0.08,0.14,1.76,0.22,4.61,0.22h4.48V200.81z M186.53,233.23c-5.02-6.14-9.53-12.99-11.99-18.19c-0.81-1.72-0.79-1.32,0.07,1.18
	c1.32,3.84,3.49,8.07,6.56,12.83c0.84,1.29,1.49,2.38,1.45,2.42c-0.19,0.2-5.32,2.78-7.05,3.53l-1.97,0.86l7.54,0l7.54,0.01
	L186.53,233.23z M48.69,235.56c2.5-0.17,9.64-0.48,15.86-0.69c10.55-0.36,11.22-0.41,10.01-0.68c-3.45-0.78-12.3-2.88-14.12-3.35
	c-1.13-0.29-2.09-0.44-2.16-0.33c-0.06,0.1-0.33,0.19-0.59,0.19c-0.35,0-0.49-0.12-0.49-0.42c0-1.24-4.34-0.59-7.48,1.12
	c-2.2,1.2-6.51,4.48-5.87,4.48C44.01,235.87,46.18,235.73,48.69,235.56z M220.39,236.02c-0.05-0.05-1.8-1.03-3.89-2.16
	c-3.66-1.99-8.39-4.75-8.75-5.11c-0.19-0.2,2.82-4.77,4.84-7.32l1.27-1.61l1.63-0.36c0.89-0.2,1.88-0.47,2.19-0.6
	c0.5-0.22,0.65-0.17,1.3,0.39c0.92,0.79,4.73,5.03,5.55,6.16l0.61,0.85l2.17-1.93c4.92-4.38,6.84-6.38,10.24-10.68
	c0.71-0.89,1.68-2.07,2.16-2.62l0.88-1l-10.99-0.06l0.04,1.03c0.05,1.51-0.41,3.02-1.19,3.87c-0.62,0.67-0.77,0.73-1.94,0.73
	c-1.39,0-1.79-0.27-1.68-1.13c0.06-0.46,0.16-0.5,1.33-0.5c1.04,0,1.32-0.08,1.55-0.43c0.68-1.01,0.47-2.33-0.43-2.7
	c-0.3-0.13-2.81-0.2-6.04-0.18l-5.52,0.04l3.79,0.15c2.09,0.08,4.53,0.1,5.44,0.04l1.64-0.12v1.78l-2.63,0.06l-2.64,0.06l-0.23,0.88
	c-0.83,3.1-2.7,4.68-6.31,5.36l-1.34,0.25l-1.22,1.62c-0.67,0.89-2.09,2.84-3.14,4.32c-2.82,3.98-4.92,6.78-6.66,8.89
	c-0.86,1.03-1.55,1.91-1.55,1.96c0,0.04,4.42,0.1,9.82,0.14C216.07,236.1,220.44,236.08,220.39,236.02z M192.86,240.28
	c-17.2-0.23-42.73-1.67-46.86-2.64c-0.39-0.09-2.15-0.04-3.91,0.11c-17.75,1.54-34.75,1.92-52.57,1.17
	c-3.02-0.13-13.39-0.33-23.04-0.46c-16.07-0.2-22.62-0.38-27.55-0.75c-1.77-0.13-1.82-0.15-2.2-0.82c-0.31-0.55-0.38-1.08-0.37-2.73
	c0.01-1.76,0.09-2.28,0.61-3.68c0.33-0.9,0.94-2.18,1.36-2.86c1.72-2.8,5.92-6.92,9.44-9.27c1.47-0.98,1.64-1.16,1.64-1.74
	c0-0.92,0.69-2.29,2.13-4.24c1.37-1.86,2.44-2.61,3.72-2.61c0.8,0,2.24,0.89,6.21,3.86l2.18,1.63l2.41,0.28
	c1.32,0.15,5.06,0.61,8.29,1.02c3.24,0.41,7.05,0.81,8.48,0.88c4.07,0.21,6.57,0.52,9.5,1.21c2.53,0.59,6.17,1.78,7.1,2.32
	c0.32,0.18,2.07-0.13,8.27-1.46c4.32-0.94,8.62-1.82,9.55-1.97c1.54-0.24,1.87-0.39,3.68-1.61c6.7-4.52,9.54-5.64,13.77-5.45
	c1.9,0.09,2.53,0.22,4.69,1c1.37,0.5,3.87,1.64,5.55,2.54l3.06,1.64l2.03-0.81c7.7-3.09,12.05-5.69,19.29-11.52
	c7.06-5.7,9.43-6.73,16.15-7.03c2.88-0.13,3.13-0.17,3.73-0.68c0.36-0.3,0.89-0.98,1.19-1.52c0.51-0.94,0.52-1.03,0.27-2.14
	c-0.64-2.87,0.71-7.41,3.08-10.4c0.97-1.22,2.81-2.52,4.45-3.13c1.18-0.44,1.71-0.5,4.14-0.49c2.47,0.01,2.98,0.08,4.39,0.59
	c5.08,1.82,7.96,6.02,7.61,11.06c-0.12,1.73-0.44,2.67-1.31,3.86c-0.72,0.98-0.96,2.05-0.61,2.75c0.37,0.74,0.78,2.57,0.79,3.46
	c0,1.05-0.48,1.49-1.66,1.49c-0.86,0-0.93,0.04-0.93,0.53c0,0.29-0.16,0.66-0.37,0.81c-0.21,0.15-0.36,0.51-0.35,0.79
	c0.02,0.3-0.14,0.61-0.37,0.75c-0.22,0.14-0.5,0.39-0.63,0.56c-0.24,0.33-2.09,0.51-11.45,1.09c-2.25,0.14-4.14,0.3-4.19,0.36
	c-0.05,0.06,4.24,0.04,9.54-0.05l9.63-0.16l-1.66,1.83c-0.91,1.01-2.1,2.4-2.65,3.09c-2.09,2.64-6.66,6.46-11.02,9.21l-1.95,1.23
	l-0.34-0.47c-0.19-0.26-1.6-3.14-3.14-6.41c-2.65-5.62-4.15-8.25-6.05-10.61c-0.88-1.1-0.8-0.88,0.55,1.32
	c0.54,0.89,2.25,4.29,3.8,7.56c1.55,3.26,3.2,6.58,3.66,7.36c0.85,1.45,1,1.92,0.63,1.92c-0.23,0-0.04,0.44,0.57,1.28l0.38,0.52
	l3.07-2.49c4.22-3.42,6.92-5.99,10.55-10.03c1.7-1.9,3.89-4.1,4.87-4.89l1.78-1.44h1.35c1.15,0,1.44,0.08,1.94,0.54
	c0.88,0.8,1.42,0.69,2.19-0.42c0.53-0.77,0.84-1,1.62-1.2c0.72-0.19,1.2-0.51,1.93-1.32c0.6-0.66,1.14-1.07,1.43-1.07
	c0.37,0,0.46-0.12,0.45-0.59c0-1.17-0.09-1.19-3.01-0.91c-1.47,0.14-3.3,0.22-4.06,0.18c-1.31-0.07-1.41-0.11-1.66-0.68
	c-0.36-0.82-0.14-3.09,0.34-3.37c0.4-0.23,2.11-0.34,4.57-0.28c1.49,0.04,1.84,0.11,1.84,0.37c0,0.18,0.13,0.32,0.29,0.32
	c0.18,0,0.25-0.13,0.18-0.32c-0.1-0.27,0.13-0.32,1.3-0.32c0.81,0,1.41,0.09,1.41,0.22c0,0.12,0.47,0.22,1.05,0.22
	c1.43,0.02,2.75,0.31,2.96,0.67c0.14,0.23,0.18,0.22,0.18-0.06c0-0.2-0.13-0.41-0.3-0.48c-0.34-0.14-0.4-0.9-0.1-1.11
	c0.11-0.07,0.2-0.36,0.2-0.64c0-1.05,0.17-1.2,1.39-1.2h1.15l0.13,1.2c0.07,0.66,0.08,1.29,0.01,1.4c-0.18,0.32,5.38,0.24,7.39-0.11
	c4.55-0.79,11.05-1.04,11.78-0.46c0.34,0.27,0.39,0.58,0.39,2.71c0,1.89-0.06,2.45-0.3,2.62c-0.6,0.45-9.21-0.21-13.32-1.02
	c-0.51-0.1-0.65-0.05-0.65,0.22c0,0.19-0.08,0.35-0.17,0.35c-0.2,0-0.46,0.89-0.31,1.05c0.41,0.44,56.15,0.9,56.15,0.46
	c0-0.13,0.27-0.22,0.6-0.22c0.4,0,0.6,0.11,0.6,0.32c0,0.18,0.13,0.32,0.28,0.32c0.15,0,0.27-0.17,0.25-0.38
	c-0.02-0.27,0.09-0.36,0.42-0.31c0.35,0.05,0.45-0.04,0.48-0.43c0.01-0.27,0.04-0.64,0.05-0.82c0.02-0.23,0.3-0.34,0.97-0.39
	l0.95-0.06v2.08l2.23-0.08c2.52-0.09,2.76,0.04,2.75,1.47c0,1.34-0.13,1.41-2.68,1.49c-1.82,0.05-2.3,0.14-2.3,0.38
	c0,0.21-0.26,0.3-0.9,0.3c-0.66,0-0.9-0.09-0.9-0.33c0-0.29-1.73-0.32-14.36-0.32h-14.37v2.32l-12.74,0.17l-1.27,1.32
	c-1.47,1.53-3.53,3.03-5.24,3.8c-1.37,0.62-3.42,1.23-4.15,1.23c-0.42,0-0.89,0.66-3.35,4.78c-4.45,7.47-8.29,13.29-10.96,16.63
	l-0.81,1.01l1.25,0.12c0.69,0.07,3.09,0.22,5.34,0.35c4.36,0.24,48.83-2.43,51.77-2.28c11.42,0.56-5.52,3.27-23.95,4.12
	C258.35,238.67,213.01,240.55,192.86,240.28z"/>
<path class="st1" d="M37.91,162.26c0,0.02-0.01,0.03-0.03,0.03c-0.02,0-0.03-0.01-0.03-0.03c0-0.02,0.01-0.03,0.03-0.03
	C37.9,162.24,37.91,162.25,37.91,162.26z"/>
<path class="st2" d="M37.91,162.26c0,0.02-0.01,0.03-0.03,0.03c-0.02,0-0.03-0.01-0.03-0.03c0-0.02,0.01-0.03,0.03-0.03
	C37.9,162.24,37.91,162.25,37.91,162.26z"/>
<path class="st1" d="M56.9,172.03c0,0.01-0.01,0.03-0.03,0.03c-0.02,0-0.03-0.02-0.03-0.03c0-0.02,0.01-0.03,0.03-0.03
	C56.88,172,56.9,172.01,56.9,172.03z"/>
<path class="st2" d="M56.9,172.03c0,0.01-0.01,0.03-0.03,0.03c-0.02,0-0.03-0.02-0.03-0.03c0-0.02,0.01-0.03,0.03-0.03
	C56.88,172,56.9,172.01,56.9,172.03z"/>
<path class="st3" d="M62.25,66.64l-0.05,0.03l2.66,4.69l1.84-1.86L62.25,66.64z M67.01,69.71l-1.98,2l1.25,2.11
	c0.11,0.19,0.21,0.32,0.3,0.41c0.11,0.12,0.25,0.23,0.41,0.31c0.16,0.07,0.35,0.01,0.55-0.2l0.14-0.14l0.27,0.27l-1.63,1.64
	l-0.27-0.27l0.13-0.12c0.12-0.12,0.18-0.27,0.2-0.42c0.02-0.16-0.04-0.35-0.19-0.56l-4.89-8.64l0.44-0.89l8.5,5.44
	c0.24,0.12,0.44,0.18,0.59,0.17c0.16-0.02,0.29-0.09,0.41-0.2l0.13-0.14l0.27,0.26l-1.89,1.92l-0.27-0.27l0.17-0.19
	c0.18-0.18,0.24-0.31,0.2-0.41c-0.03-0.1-0.08-0.19-0.14-0.25c-0.12-0.13-0.23-0.22-0.34-0.28L67.01,69.71z"/>
<path class="st3" d="M71.38,64.06c-1.16,0.37-2.02,0.55-2.58,0.55c-0.55-0.01-1.08-0.32-1.59-0.92c-0.41-0.48-0.6-1.1-0.58-1.88
	c0.02-0.78,0.39-1.49,1.11-2.12c0.31-0.28,0.64-0.5,1-0.66c0.39-0.13,0.64-0.24,0.77-0.36c0.09-0.08,0.16-0.18,0.2-0.3
	c0.03-0.11,0.03-0.26-0.02-0.44l1.83,1.78l-0.14,0.3c-0.84-0.41-1.52-0.61-2.01-0.58c-0.5,0.02-0.98,0.24-1.44,0.66
	c-0.59,0.53-0.86,1.06-0.8,1.59c0.06,0.53,0.26,0.99,0.59,1.37c0.29,0.34,0.63,0.53,1.02,0.56c0.38,0.02,1.19-0.17,2.44-0.58
	c1.01-0.34,1.84-0.46,2.5-0.36c0.66,0.11,1.23,0.43,1.69,0.97c0.49,0.57,0.73,1.26,0.72,2.05c0,0.79-0.38,1.52-1.12,2.19
	c-0.31,0.28-0.64,0.47-1,0.56c-0.36,0.16-0.61,0.3-0.77,0.44c-0.09,0.09-0.16,0.22-0.2,0.36c-0.04,0.15-0.08,0.32-0.11,0.52
	l-2.36-1.98l0.19-0.34c0.89,0.59,1.65,0.87,2.3,0.83c0.66-0.05,1.23-0.3,1.72-0.75c0.53-0.47,0.79-0.98,0.78-1.53
	c0-0.56-0.26-1.14-0.78-1.75c-0.26-0.32-0.67-0.5-1.23-0.53C72.93,63.66,72.23,63.78,71.38,64.06z"/>
<path class="st3" d="M80.57,56.07c1.03,1.37,1.58,2.65,1.64,3.84c0.07,1.2-0.28,2.11-1.06,2.73c-0.75,0.59-1.7,0.71-2.84,0.34
	c-1.13-0.38-2.2-1.22-3.2-2.55c-0.98-1.3-1.52-2.55-1.61-3.75c-0.1-1.21,0.25-2.13,1.06-2.78c0.86-0.67,1.84-0.78,2.97-0.33
	C78.65,54.05,79.67,54.88,80.57,56.07z M76.04,59.7c1.09,1.43,2.04,2.33,2.86,2.7c0.83,0.37,1.51,0.36,2.03-0.06
	c0.55-0.44,0.75-1.09,0.61-1.97c-0.14-0.87-0.77-2.05-1.89-3.55c-0.91-1.2-1.77-2.05-2.59-2.56c-0.83-0.51-1.58-0.5-2.23,0.02
	c-0.55,0.44-0.74,1.12-0.56,2.05C74.44,57.24,75.03,58.37,76.04,59.7z"/>
<path class="st3" d="M87.81,57.67c-0.96,0.67-1.96,0.84-3.02,0.52c-1.05-0.32-2.1-1.27-3.14-2.83c-0.88-1.31-1.32-2.61-1.3-3.89
	c0.02-1.29,0.54-2.3,1.56-3.02c0.24-0.16,0.5-0.3,0.77-0.42c0.31-0.06,0.56-0.15,0.73-0.27c0.14-0.09,0.23-0.19,0.3-0.28
	c0.06-0.09,0.09-0.22,0.09-0.38l1.98,1.97l-0.25,0.33c-0.64-0.53-1.24-0.85-1.81-0.95c-0.58-0.1-1.14,0.04-1.69,0.42
	c-0.72,0.51-1,1.3-0.86,2.37c0.15,1.07,0.62,2.2,1.41,3.37c0.86,1.28,1.7,2.17,2.53,2.66c0.83,0.48,1.64,0.44,2.42-0.11
	c0.54-0.38,0.87-0.91,0.99-1.58c0.12-0.67,0.03-1.39-0.27-2.14l0.42-0.06c0.31,0.84,0.39,1.66,0.25,2.45
	C88.79,56.62,88.41,57.23,87.81,57.67z"/>
<path class="st3" d="M86.83,45.75l-0.2-0.33l4.25-2.63l0.2,0.33l-1.23,0.75c-0.13,0.09-0.22,0.2-0.27,0.33
	c-0.05,0.12-0.03,0.25,0.05,0.39l4.53,7.7c0.09,0.15,0.2,0.23,0.33,0.25c0.13,0.02,0.27-0.02,0.41-0.11l1.23-0.75l0.19,0.31
	l-4.25,2.63l-0.19-0.31l1.22-0.75c0.18-0.11,0.27-0.23,0.3-0.34c0.03-0.11,0-0.24-0.09-0.39l-4.53-7.7
	c-0.08-0.14-0.18-0.23-0.28-0.25c-0.11-0.03-0.26,0.01-0.44,0.13L86.83,45.75z"/>
<path class="st3" d="M96.53,40.9l-0.05,0.03l1.22,5.25l2.3-1.25L96.53,40.9z M100.24,45.23l-2.47,1.34l0.58,2.38
	c0.05,0.21,0.11,0.37,0.17,0.48c0.07,0.15,0.18,0.28,0.31,0.39c0.13,0.12,0.33,0.1,0.59-0.03l0.16-0.09l0.17,0.34l-2.03,1.09
	l-0.17-0.34l0.17-0.09c0.14-0.07,0.25-0.18,0.31-0.33c0.06-0.16,0.05-0.35-0.03-0.59l-2.23-9.67l0.67-0.72l6.62,7.66
	c0.19,0.19,0.36,0.3,0.52,0.33c0.16,0.02,0.3,0,0.45-0.08l0.17-0.09l0.17,0.34L102,48.82l-0.17-0.34l0.23-0.13
	c0.22-0.11,0.32-0.22,0.31-0.33c-0.01-0.11-0.04-0.21-0.08-0.28c-0.07-0.16-0.16-0.27-0.27-0.36L100.24,45.23z"/>
<path class="st3" d="M108.63,45.67c-1.05,0.5-2.07,0.5-3.05-0.02c-0.98-0.52-1.85-1.63-2.61-3.34c-0.65-1.44-0.85-2.8-0.61-4.06
	c0.24-1.26,0.93-2.15,2.06-2.67c0.26-0.12,0.53-0.21,0.83-0.26c0.32-0.01,0.58-0.05,0.77-0.14c0.14-0.07,0.26-0.14,0.34-0.22
	c0.08-0.08,0.13-0.2,0.16-0.36l1.61,2.28l-0.28,0.26c-0.54-0.61-1.09-1.02-1.64-1.23c-0.56-0.21-1.13-0.17-1.73,0.11
	c-0.79,0.38-1.21,1.11-1.25,2.19c-0.04,1.07,0.23,2.26,0.8,3.55c0.62,1.41,1.3,2.43,2.03,3.06c0.73,0.62,1.53,0.73,2.41,0.33
	c0.6-0.28,1.02-0.74,1.27-1.38c0.24-0.64,0.27-1.37,0.11-2.17l0.41,0.02c0.16,0.89,0.11,1.71-0.17,2.47
	C109.78,44.82,109.3,45.35,108.63,45.67z"/>
<path class="st3" d="M109.69,33.79l-0.14-0.34l4.66-1.84l0.14,0.34L113,32.47c-0.16,0.06-0.27,0.15-0.34,0.27
	c-0.06,0.12-0.06,0.25,0,0.41l3.16,8.38c0.05,0.16,0.14,0.26,0.26,0.3c0.13,0.04,0.27,0.03,0.42-0.03l1.34-0.53l0.12,0.34
	l-4.66,1.84l-0.12-0.34l1.34-0.53c0.19-0.07,0.3-0.16,0.34-0.27c0.05-0.11,0.05-0.25,0-0.41l-3.16-8.37
	c-0.06-0.16-0.14-0.25-0.25-0.3c-0.1-0.05-0.25-0.04-0.44,0.03L109.69,33.79z"/>
<path class="st3" d="M124.97,33.57c0.51,1.64,0.59,3.03,0.25,4.17c-0.34,1.14-0.99,1.86-1.94,2.16c-0.91,0.3-1.84,0.09-2.8-0.66
	c-0.96-0.74-1.68-1.91-2.17-3.5c-0.49-1.55-0.57-2.91-0.25-4.06c0.31-1.16,0.96-1.89,1.95-2.22c1.03-0.33,2-0.09,2.91,0.73
	C123.83,31.02,124.52,32.15,124.97,33.57z M119.43,35.37c0.53,1.72,1.12,2.9,1.78,3.53c0.66,0.64,1.3,0.85,1.94,0.64
	c0.68-0.22,1.1-0.76,1.27-1.62c0.16-0.86-0.03-2.19-0.58-3.98c-0.45-1.43-0.98-2.52-1.59-3.28c-0.62-0.77-1.32-1.02-2.11-0.77
	c-0.67,0.22-1.07,0.79-1.22,1.72C118.76,32.53,118.93,33.79,119.43,35.37z"/>
<path class="st3" d="M132.48,34.55l0.13-0.03l-1.77-7.09c-0.04-0.16-0.12-0.27-0.22-0.33c-0.11-0.06-0.26-0.07-0.45-0.02l-0.48,0.13
	l-0.09-0.36l2.42-0.62l0.09,0.36l-0.48,0.12c-0.17,0.04-0.29,0.12-0.37,0.23c-0.07,0.11-0.09,0.24-0.05,0.39l2.37,9.52l-0.36,0.09
	l-6.84-7.83l-0.13,0.03l2.05,8.19c0.03,0.17,0.1,0.28,0.22,0.33c0.12,0.05,0.27,0.06,0.44,0.02l0.48-0.13l0.09,0.36l-2.42,0.63
	l-0.09-0.36l0.48-0.13c0.19-0.05,0.33-0.13,0.39-0.22c0.06-0.1,0.08-0.24,0.05-0.41l-2.17-8.67c-0.04-0.16-0.11-0.27-0.22-0.33
	c-0.1-0.06-0.25-0.07-0.45-0.01l-0.37,0.09l-0.09-0.36l1.77-0.45L132.48,34.55z"/>
<path class="st3" d="M134.76,36.8"/>
<path class="st3" d="M142.59,25.11c-0.02-0.16-0.08-0.28-0.17-0.34c-0.09-0.07-0.24-0.09-0.44-0.06l-0.38,0.05l-0.05-0.37l2.78-0.38
	c1.28-0.16,2.36,0.11,3.23,0.83c0.87,0.72,1.42,1.95,1.64,3.69c0.25,1.91,0.05,3.36-0.58,4.34c-0.62,0.98-1.66,1.57-3.11,1.77
	l-2.66,0.34l-0.05-0.38l0.44-0.05c0.2-0.03,0.33-0.09,0.41-0.19c0.07-0.09,0.1-0.22,0.08-0.37L142.59,25.11z M148.04,28.8
	c-0.23-1.78-0.66-2.99-1.3-3.64c-0.63-0.64-1.41-0.91-2.36-0.78c-0.29,0.04-0.51,0.11-0.64,0.2c-0.12,0.09-0.18,0.23-0.16,0.39
	l1.16,8.87c0.02,0.16,0.09,0.27,0.22,0.34c0.13,0.06,0.3,0.09,0.52,0.06c0.91-0.12,1.63-0.57,2.16-1.33
	C148.17,32.15,148.3,30.78,148.04,28.8z"/>
<path class="st3" d="M150.24,23.64l-0.02-0.37l6.11-0.44l0.83,2.06l-0.3,0.14c-0.37-0.59-0.76-1.03-1.17-1.31
	c-0.4-0.29-0.82-0.41-1.28-0.37l-1.73,0.12c-0.17,0.01-0.3,0.06-0.41,0.16c-0.09,0.09-0.13,0.21-0.11,0.38l0.27,3.86l1.8-0.12
	c0.41-0.03,0.71-0.16,0.87-0.38c0.18-0.23,0.25-0.55,0.22-0.97l-0.02-0.37l0.37-0.02l0.25,3.69l-0.37,0.02l-0.02-0.25
	c-0.03-0.46-0.15-0.8-0.36-1.03c-0.2-0.24-0.51-0.34-0.92-0.31l-1.8,0.12l0.33,4.67c0.01,0.17,0.07,0.29,0.17,0.38
	c0.11,0.07,0.25,0.11,0.42,0.09l1.61-0.13c0.63-0.04,1.14-0.25,1.55-0.64c0.41-0.38,0.72-0.96,0.92-1.73l0.33,0.11l-0.52,2.48
	l-6.36,0.45l-0.03-0.37l0.38-0.03c0.21-0.01,0.35-0.05,0.42-0.14c0.08-0.09,0.12-0.22,0.11-0.39l-0.62-8.91
	c-0.02-0.16-0.08-0.29-0.17-0.36c-0.09-0.08-0.23-0.12-0.44-0.11L150.24,23.64z"/>
<path class="st3" d="M162.32,27.98c0.63-0.01,1.17-0.2,1.64-0.58c0.48-0.38,0.71-1.04,0.7-1.95c-0.01-0.83-0.22-1.44-0.62-1.83
	c-0.4-0.39-1.03-0.59-1.91-0.58l-0.87,0c-0.17,0-0.3,0.05-0.41,0.14c-0.11,0.09-0.16,0.21-0.16,0.38l0.06,4.44L162.32,27.98z
	 M160.76,28.37l0.05,4.12c0,0.17,0.05,0.29,0.16,0.38c0.11,0.07,0.25,0.11,0.42,0.11l0.44,0l0,0.38l-3,0.03l0-0.37l0.44,0
	c0.21-0.01,0.35-0.05,0.42-0.14c0.08-0.08,0.13-0.21,0.13-0.38l-0.11-8.94c0-0.16-0.04-0.29-0.12-0.38
	c-0.09-0.08-0.23-0.12-0.44-0.11l-0.38,0l0-0.37l3.69-0.05c1.04,0,1.84,0.26,2.41,0.77c0.57,0.51,0.86,1.16,0.87,1.95
	c0.01,0.96-0.29,1.7-0.89,2.2c-0.59,0.51-1.31,0.77-2.14,0.77L160.76,28.37z"/>
<path class="st3" d="M170.61,23.97l-0.06-0.02l-1.55,5.11l2.62,0.14L170.61,23.97z M171.68,29.58l-2.81-0.14l-0.67,2.34
	c-0.05,0.2-0.09,0.36-0.09,0.48c-0.01,0.17,0.01,0.34,0.06,0.52c0.06,0.17,0.24,0.26,0.53,0.28l0.19,0l-0.01,0.38l-2.31-0.12
	l0.01-0.38l0.19,0.02c0.17,0.01,0.31-0.03,0.44-0.13c0.13-0.1,0.23-0.28,0.28-0.53l2.88-9.41l0.95-0.27l1.91,9.98
	c0.07,0.25,0.16,0.43,0.28,0.55c0.13,0.11,0.27,0.16,0.44,0.17l0.19,0.02l-0.02,0.37l-2.67-0.14l0.02-0.37l0.25,0.02
	c0.25,0.01,0.39-0.04,0.44-0.14c0.04-0.1,0.06-0.19,0.06-0.28c0.01-0.16,0-0.31-0.03-0.44L171.68,29.58z"/>
<path class="st3" d="M177.43,28.29l1.36,0.16c0.62,0.07,1.16-0.05,1.61-0.37c0.45-0.32,0.71-0.88,0.8-1.67
	c0.07-0.71-0.06-1.27-0.39-1.7c-0.32-0.44-0.88-0.7-1.67-0.8l-0.67-0.08c-0.17-0.02-0.31,0.01-0.42,0.08
	c-0.11,0.07-0.17,0.2-0.19,0.36L177.43,28.29z M182.28,26.4c-0.09,0.84-0.38,1.45-0.89,1.86c-0.5,0.4-1.05,0.6-1.64,0.61l1.38,4.81
	c0.06,0.18,0.14,0.3,0.23,0.38c0.1,0.07,0.22,0.12,0.34,0.14l0.38,0.03l-0.03,0.38l-1.73-0.2l-1.5-5.58l-1.42-0.16l-0.47,4.47
	c-0.02,0.17,0.02,0.3,0.11,0.39c0.09,0.09,0.22,0.15,0.39,0.17l0.37,0.05l-0.03,0.38l-2.86-0.33l0.03-0.38l0.38,0.03
	c0.21,0.03,0.35,0.01,0.44-0.06c0.09-0.07,0.15-0.19,0.17-0.36l0.94-8.88c0.02-0.16-0.01-0.3-0.08-0.39
	c-0.07-0.09-0.21-0.16-0.42-0.19l-0.38-0.03l0.05-0.37l3.53,0.41c0.96,0.11,1.67,0.4,2.14,0.87
	C182.17,24.92,182.36,25.57,182.28,26.4z"/>
<path class="st3" d="M187.81,35.63l-3.19-0.58l0.06-0.36l0.55,0.09c0.21,0.04,0.36,0.03,0.45-0.03c0.09-0.07,0.16-0.19,0.19-0.36
	l1.44-8.62c0.05-0.33,0.06-0.52,0.02-0.58c-0.03-0.05-0.2-0.1-0.48-0.16c-0.57-0.09-0.99-0.05-1.25,0.11
	c-0.25,0.17-0.62,0.67-1.11,1.5l-0.34-0.13l0.94-2.25l5.84,1.05l0.11,2.44l-0.33,0c-0.19-0.91-0.36-1.5-0.5-1.77
	c-0.15-0.26-0.51-0.44-1.08-0.55c-0.42-0.07-0.65-0.09-0.69-0.05c-0.04,0.03-0.09,0.23-0.16,0.59l-1.42,8.58
	c-0.03,0.17-0.01,0.3,0.08,0.41c0.09,0.1,0.22,0.16,0.39,0.19l0.55,0.11L187.81,35.63z"/>
<path class="st3" d="M195.99,27.62l-0.06-0.02l-2.42,4.73l2.55,0.63L195.99,27.62z M196.03,33.36l-2.73-0.67l-1.08,2.19
	c-0.09,0.2-0.15,0.36-0.17,0.47c-0.04,0.17-0.06,0.34-0.03,0.52c0.03,0.18,0.19,0.3,0.47,0.36l0.19,0.05l-0.08,0.36l-2.25-0.55
	l0.08-0.36l0.17,0.05c0.16,0.04,0.32,0.03,0.45-0.05c0.14-0.07,0.27-0.23,0.38-0.47l4.5-8.75l0.98-0.08l0.11,10.19
	c0.01,0.27,0.07,0.47,0.17,0.59c0.1,0.13,0.23,0.22,0.39,0.27l0.19,0.05l-0.08,0.36l-2.61-0.64l0.08-0.36l0.23,0.06
	c0.25,0.05,0.4,0.03,0.45-0.06c0.06-0.09,0.1-0.17,0.13-0.25c0.04-0.17,0.05-0.32,0.05-0.45L196.03,33.36z"/>
<path class="st3" d="M204.92,39.19c-0.04,0.16-0.03,0.29,0.05,0.41c0.07,0.11,0.19,0.2,0.34,0.25l0.23,0.08l-0.11,0.36l-2.56-0.8
	l0.11-0.36l0.3,0.09c0.2,0.06,0.35,0.06,0.45,0c0.11-0.06,0.19-0.17,0.23-0.33l2.3-7.86L206.14,31l-4.58,8.06l-0.36-0.11l0.66-9.11
	l-0.12-0.03l-2.25,7.69c-0.04,0.16-0.03,0.29,0.05,0.41c0.07,0.12,0.19,0.2,0.36,0.25l0.17,0.05l-0.11,0.36l-1.8-0.55l0.11-0.36
	l0.19,0.05c0.2,0.06,0.35,0.07,0.45,0.01c0.1-0.06,0.18-0.17,0.22-0.33l2.52-8.58c0.04-0.16,0.03-0.3-0.02-0.41
	c-0.05-0.1-0.18-0.19-0.37-0.25l-0.24-0.08l0.11-0.36l1.72,0.55l-0.63,8.58l0.13,0.05l4.2-7.47l1.91,0.59l-0.11,0.36l-0.24-0.08
	c-0.16-0.05-0.3-0.05-0.42,0c-0.12,0.04-0.21,0.15-0.25,0.31L204.92,39.19z"/>
<path class="st3" d="M209.6,30.81l0.12-0.36l5.72,2.19l-0.08,2.25l-0.33,0.02c-0.1-0.72-0.28-1.29-0.53-1.7
	c-0.24-0.43-0.57-0.72-1-0.89l-1.63-0.62c-0.16-0.06-0.3-0.07-0.44-0.03c-0.13,0.04-0.21,0.14-0.27,0.3l-1.31,3.64l1.69,0.66
	c0.39,0.15,0.71,0.16,0.95,0.03c0.25-0.12,0.44-0.38,0.58-0.78l0.12-0.36l0.36,0.13l-1.25,3.48l-0.36-0.12l0.09-0.25
	c0.16-0.43,0.19-0.79,0.09-1.09c-0.09-0.3-0.32-0.52-0.72-0.67l-1.69-0.66l-1.59,4.41c-0.06,0.16-0.04,0.29,0.03,0.41
	c0.07,0.11,0.19,0.2,0.34,0.27l1.52,0.58c0.58,0.23,1.13,0.25,1.66,0.08c0.53-0.18,1.04-0.57,1.53-1.19l0.23,0.22l-1.47,2.06
	l-5.95-2.28l0.14-0.36l0.36,0.14c0.19,0.07,0.33,0.09,0.44,0.03c0.1-0.05,0.18-0.16,0.23-0.31l3.03-8.41c0.05-0.16,0.05-0.28,0-0.39
	c-0.04-0.1-0.16-0.19-0.34-0.27L209.6,30.81z"/>
<path class="st3" d="M219.86,43.52l0.11,0.05l2.89-6.72c0.07-0.16,0.08-0.29,0.03-0.39c-0.04-0.11-0.16-0.21-0.34-0.3l-0.45-0.2
	l0.14-0.34l2.28,1.03l-0.14,0.34l-0.47-0.2c-0.15-0.07-0.28-0.09-0.41-0.06c-0.13,0.03-0.23,0.12-0.3,0.28l-3.88,9.02l-0.34-0.16
	l-0.64-10.52l-0.11-0.06l-3.34,7.75c-0.06,0.16-0.06,0.29,0,0.41c0.06,0.13,0.17,0.22,0.33,0.28l0.45,0.22l-0.16,0.34l-2.28-1.05
	l0.16-0.34l0.45,0.22c0.2,0.09,0.35,0.11,0.45,0.08c0.1-0.04,0.19-0.14,0.25-0.3l3.53-8.22c0.07-0.16,0.09-0.29,0.05-0.39
	c-0.04-0.11-0.16-0.21-0.36-0.3l-0.33-0.16l0.14-0.34l1.64,0.75L219.86,43.52z"/>
<path class="st3" d="M225.34,49.16l-2.86-1.53l0.17-0.34l0.48,0.26c0.19,0.09,0.33,0.13,0.44,0.09c0.11-0.03,0.21-0.12,0.28-0.27
	l3.94-7.83c0.16-0.29,0.22-0.46,0.2-0.52c-0.02-0.06-0.16-0.16-0.42-0.3c-0.51-0.28-0.92-0.38-1.22-0.3
	c-0.29,0.07-0.79,0.44-1.48,1.09l-0.3-0.23l1.55-1.84l5.25,2.8l-0.62,2.34l-0.31-0.08c0.1-0.94,0.12-1.55,0.05-1.84
	c-0.06-0.29-0.35-0.58-0.86-0.86c-0.37-0.19-0.57-0.27-0.62-0.25c-0.05,0.01-0.16,0.18-0.33,0.52l-3.92,7.77
	c-0.07,0.14-0.09,0.27-0.03,0.39c0.05,0.13,0.15,0.23,0.3,0.31l0.5,0.26L225.34,49.16z"/>
<path class="st3" d="M235.55,44.02l-0.05-0.03l-3.75,3.8l2.23,1.38L235.55,44.02z M233.86,49.52l-2.39-1.47l-1.69,1.75
	c-0.15,0.17-0.25,0.3-0.31,0.41c-0.09,0.15-0.14,0.3-0.17,0.47c-0.02,0.18,0.09,0.34,0.34,0.5l0.16,0.09l-0.19,0.33l-1.97-1.22
	l0.19-0.33l0.16,0.11c0.14,0.09,0.3,0.12,0.45,0.09c0.16-0.02,0.31-0.13,0.47-0.33l6.91-6.97l0.95,0.2l-2.95,9.78
	c-0.06,0.26-0.07,0.47-0.02,0.63c0.06,0.16,0.16,0.27,0.3,0.36l0.17,0.09l-0.19,0.33l-2.3-1.41l0.19-0.33l0.22,0.14
	c0.21,0.12,0.35,0.15,0.44,0.08c0.09-0.06,0.16-0.13,0.2-0.2c0.08-0.15,0.14-0.28,0.17-0.41L233.86,49.52z"/>
<path class="st3" d="M236.92,55.26c-0.09,0.13-0.12,0.27-0.09,0.41c0.04,0.13,0.13,0.25,0.27,0.34l1.37,0.98
	c0.48,0.33,0.98,0.47,1.52,0.41c0.54-0.05,1.11-0.33,1.7-0.83l0.19,0.28l-1.83,1.7l-5.25-3.72l0.2-0.31l0.36,0.27
	c0.16,0.11,0.3,0.16,0.42,0.12c0.11-0.02,0.22-0.1,0.31-0.23l4.97-7.42c0.09-0.14,0.13-0.27,0.11-0.39
	c-0.02-0.11-0.12-0.23-0.28-0.34l-0.31-0.22l0.2-0.31l2.41,1.69l-0.2,0.31l-0.36-0.25c-0.14-0.09-0.27-0.13-0.41-0.13
	c-0.12,0-0.23,0.07-0.33,0.22L236.92,55.26z"/>
<path class="st3" d="M240.83,59.41"/>
<path class="st3" d="M254.67,57.75c0.1-0.13,0.15-0.24,0.14-0.36c0-0.13-0.08-0.26-0.24-0.41l-0.27-0.25l0.23-0.28l2.08,1.91
	c0.95,0.87,1.43,1.87,1.45,3.03c0.03,1.15-0.53,2.38-1.67,3.7c-1.26,1.44-2.46,2.25-3.61,2.42c-1.14,0.18-2.24-0.23-3.31-1.2
	l-1.98-1.83l0.25-0.28l0.31,0.3c0.16,0.14,0.29,0.21,0.41,0.2c0.13,0,0.24-0.06,0.34-0.19L254.67,57.75z M255.43,64.39
	c1.18-1.35,1.8-2.49,1.87-3.41c0.08-0.91-0.23-1.7-0.92-2.34c-0.22-0.19-0.41-0.31-0.58-0.34c-0.17-0.04-0.3,0-0.41,0.12l-5.86,6.77
	c-0.11,0.13-0.14,0.26-0.11,0.41c0.04,0.15,0.14,0.29,0.3,0.44c0.68,0.61,1.47,0.87,2.38,0.77
	C253.02,66.71,254.13,65.9,255.43,64.39z"/>
<path class="st3" d="M260.82,62.74l0.25-0.27l4.27,4.41l-1.01,2.02l-0.3-0.14c0.21-0.69,0.29-1.27,0.25-1.77
	c-0.04-0.5-0.23-0.91-0.55-1.23l-1.2-1.27c-0.13-0.11-0.26-0.17-0.39-0.19c-0.12-0.02-0.25,0.03-0.36,0.14l-2.72,2.77l1.25,1.31
	c0.29,0.3,0.58,0.45,0.86,0.44c0.28-0.02,0.57-0.18,0.86-0.48l0.25-0.27l0.27,0.28l-2.58,2.64l-0.27-0.28l0.17-0.19
	c0.32-0.32,0.5-0.64,0.55-0.95c0.05-0.31-0.07-0.62-0.36-0.92l-1.25-1.31l-3.3,3.36c-0.12,0.11-0.17,0.24-0.16,0.37
	c0.01,0.13,0.08,0.26,0.2,0.38l1.12,1.17c0.44,0.45,0.93,0.7,1.48,0.77c0.55,0.07,1.18-0.07,1.87-0.44l0.13,0.31l-2.19,1.27
	l-4.44-4.59l0.27-0.28l0.27,0.27c0.14,0.16,0.27,0.23,0.39,0.23c0.11,0,0.23-0.06,0.34-0.17l6.27-6.39
	c0.11-0.11,0.17-0.23,0.17-0.34c0.01-0.12-0.06-0.27-0.2-0.42L260.82,62.74z"/>
<path class="st3" d="M258.69,75.74"/>
<path class="st3" d="M267.5,86.21l-1.95-2.61l0.28-0.23l0.34,0.45c0.13,0.16,0.24,0.25,0.36,0.27c0.11,0.02,0.23-0.02,0.36-0.12
	l6.87-5.42c0.26-0.21,0.39-0.34,0.39-0.41c0.01-0.06-0.07-0.21-0.23-0.44c-0.36-0.47-0.68-0.73-0.98-0.78
	c-0.3-0.05-0.91,0.07-1.83,0.38l-0.17-0.34l2.19-1.03l3.58,4.75l-1.56,1.89l-0.23-0.22c0.49-0.81,0.77-1.36,0.83-1.66
	c0.06-0.29-0.09-0.67-0.44-1.14c-0.25-0.33-0.4-0.5-0.45-0.5c-0.05-0.01-0.23,0.1-0.52,0.33l-6.83,5.39
	c-0.12,0.1-0.19,0.22-0.2,0.36c0,0.13,0.05,0.27,0.14,0.41l0.34,0.45L267.5,86.21z"/>
<path class="st3" d="M278.34,83.64l0.3-0.22l2.75,4.17l-0.3,0.22l-0.8-1.2c-0.09-0.13-0.2-0.22-0.33-0.27
	c-0.13-0.04-0.26-0.02-0.39,0.08l-7.34,5.09c-0.14,0.09-0.21,0.21-0.22,0.34c-0.01,0.13,0.02,0.27,0.11,0.41l0.8,1.2l-0.31,0.22
	l-2.75-4.17l0.31-0.22l0.78,1.2c0.11,0.18,0.23,0.27,0.34,0.3c0.11,0.02,0.24-0.02,0.38-0.11l7.34-5.09
	c0.13-0.09,0.21-0.2,0.23-0.31c0.03-0.11-0.01-0.26-0.13-0.44L278.34,83.64z"/>
<path class="st3" d="M279.66,94.19l0.69,1.2c0.31,0.54,0.73,0.89,1.25,1.06c0.52,0.16,1.12,0.05,1.8-0.36
	c0.61-0.37,1-0.81,1.16-1.34c0.16-0.54,0.03-1.15-0.36-1.83l-0.34-0.61c-0.09-0.13-0.19-0.22-0.31-0.27
	c-0.13-0.05-0.26-0.04-0.41,0.05L279.66,94.19z M284.04,96.96c-0.71,0.43-1.38,0.56-2,0.41c-0.62-0.16-1.11-0.47-1.45-0.94
	l-3.05,4.02c-0.09,0.16-0.15,0.29-0.16,0.41c0,0.13,0.03,0.24,0.09,0.36l0.19,0.33l-0.31,0.2l-0.88-1.53l3.58-4.56l-0.72-1.25
	l-3.84,2.33c-0.15,0.08-0.23,0.19-0.25,0.33c-0.02,0.13,0.01,0.27,0.09,0.41l0.19,0.33l-0.31,0.2l-1.44-2.48l0.31-0.2l0.19,0.33
	c0.1,0.18,0.21,0.28,0.33,0.31c0.11,0.03,0.24,0,0.39-0.08l7.64-4.62c0.14-0.08,0.23-0.18,0.27-0.3c0.03-0.13-0.01-0.27-0.11-0.45
	l-0.19-0.33l0.31-0.19l1.78,3.08c0.47,0.83,0.66,1.58,0.56,2.25C285.17,95.97,284.76,96.52,284.04,96.96z"/>
<path class="st3" d="M285.71,106.41c-1.51,0.79-2.85,1.11-4.02,0.97c-1.17-0.14-1.97-0.65-2.41-1.55c-0.43-0.87-0.36-1.84,0.22-2.92
	c0.58-1.07,1.61-1.99,3.09-2.77c1.45-0.75,2.75-1.06,3.92-0.94c1.18,0.12,2,0.64,2.47,1.58c0.48,0.97,0.38,1.97-0.28,3.02
	C288.04,104.85,287.04,105.72,285.71,106.41z M283.13,101.21c-1.59,0.84-2.64,1.63-3.17,2.41c-0.53,0.77-0.65,1.45-0.34,2.05
	c0.31,0.63,0.9,0.96,1.77,0.97c0.87,0.02,2.14-0.41,3.8-1.28c1.33-0.69,2.33-1.4,2.99-2.14c0.66-0.74,0.8-1.48,0.44-2.23
	c-0.32-0.63-0.95-0.95-1.87-0.94C285.81,100.05,284.61,100.44,283.13,101.21z"/>
<path class="st3" d="M280.99,109.56"/>
<path class="st3" d="M294.05,114.81c0.16-0.05,0.26-0.13,0.31-0.23c0.05-0.11,0.04-0.27-0.03-0.47l-0.13-0.34l0.34-0.12l0.94,2.64
	c0.43,1.22,0.38,2.33-0.14,3.34c-0.52,1.02-1.6,1.84-3.23,2.45c-1.8,0.66-3.25,0.8-4.34,0.39c-1.09-0.4-1.87-1.28-2.36-2.66
	l-0.89-2.53l0.36-0.12l0.14,0.41c0.07,0.2,0.16,0.32,0.27,0.37c0.1,0.05,0.23,0.05,0.39-0.01L294.05,114.81z M291.58,121
	c1.69-0.63,2.78-1.32,3.28-2.09c0.51-0.76,0.6-1.59,0.28-2.5c-0.09-0.27-0.21-0.46-0.34-0.56c-0.13-0.1-0.27-0.13-0.42-0.08
	l-8.37,3.11c-0.16,0.06-0.26,0.16-0.3,0.3c-0.03,0.14-0.01,0.32,0.06,0.52c0.3,0.86,0.88,1.47,1.72,1.81
	C288.34,121.85,289.7,121.68,291.58,121z"/>
<path class="st3" d="M297.15,122.21l0.36-0.11l1.69,5.87l-1.84,1.3l-0.2-0.27c0.51-0.5,0.86-0.98,1.05-1.44
	c0.19-0.45,0.23-0.9,0.11-1.34l-0.48-1.67c-0.04-0.16-0.12-0.29-0.23-0.36c-0.11-0.07-0.23-0.08-0.39-0.03l-3.72,1.11l0.5,1.75
	c0.11,0.39,0.3,0.65,0.55,0.77c0.26,0.13,0.59,0.13,0.98,0.02l0.36-0.11l0.11,0.36l-3.53,1.06l-0.11-0.36l0.23-0.08
	c0.44-0.12,0.75-0.32,0.94-0.58c0.19-0.25,0.22-0.58,0.11-0.97l-0.5-1.75l-4.48,1.34c-0.16,0.05-0.26,0.13-0.31,0.25
	c-0.06,0.13-0.06,0.27-0.02,0.44l0.45,1.56c0.16,0.59,0.48,1.05,0.94,1.38c0.47,0.32,1.09,0.49,1.87,0.52l-0.01,0.33l-2.53,0.05
	l-1.77-6.13l0.36-0.11l0.09,0.36c0.06,0.19,0.14,0.33,0.25,0.39c0.1,0.06,0.24,0.07,0.39,0.02l8.56-2.56
	c0.16-0.05,0.26-0.13,0.31-0.23c0.06-0.11,0.06-0.27,0-0.47L297.15,122.21z"/>
<path class="st3" d="M295.5,135.2c0.13,0.6,0.44,1.1,0.91,1.48c0.47,0.38,1.14,0.47,2.03,0.27c0.81-0.19,1.37-0.52,1.67-1
	c0.3-0.48,0.35-1.15,0.16-2l-0.19-0.86c-0.03-0.16-0.1-0.28-0.2-0.36c-0.11-0.09-0.24-0.1-0.41-0.06l-4.31,1L295.5,135.2z
	 M294.78,133.76l-4.02,0.94c-0.16,0.03-0.27,0.11-0.33,0.23c-0.05,0.13-0.06,0.27-0.03,0.42l0.09,0.44l-0.36,0.08l-0.66-2.94
	l0.36-0.08l0.09,0.44c0.05,0.2,0.13,0.33,0.22,0.39c0.1,0.06,0.23,0.08,0.39,0.05l8.7-2.03c0.16-0.04,0.28-0.11,0.34-0.22
	c0.06-0.1,0.07-0.25,0.02-0.45l-0.08-0.37l0.38-0.08l0.81,3.61c0.23,1.01,0.14,1.85-0.25,2.52c-0.39,0.68-0.96,1.1-1.73,1.28
	c-0.93,0.22-1.7,0.09-2.33-0.39c-0.62-0.48-1.02-1.12-1.2-1.94L294.78,133.76z"/>
<path class="st3" d="M297.71,147.15c-1.69,0.28-3.07,0.17-4.14-0.33c-1.07-0.49-1.69-1.23-1.84-2.2c-0.16-0.95,0.2-1.84,1.08-2.69
	c0.87-0.84,2.13-1.41,3.78-1.69c1.6-0.27,2.95-0.17,4.03,0.3c1.09,0.47,1.72,1.22,1.89,2.25c0.16,1.06-0.23,1.99-1.17,2.78
	C300.4,146.37,299.19,146.9,297.71,147.15z M296.77,141.42c-1.77,0.3-3.02,0.73-3.75,1.3c-0.73,0.56-1.04,1.18-0.92,1.84
	c0.11,0.69,0.58,1.19,1.41,1.47c0.82,0.28,2.16,0.27,4-0.05c1.48-0.25,2.65-0.63,3.5-1.13c0.85-0.5,1.21-1.16,1.08-1.98
	c-0.12-0.7-0.62-1.18-1.52-1.45C299.68,141.14,298.42,141.14,296.77,141.42z"/>
<path class="st3" d="M298.48,150.5l0.14,1.37c0.06,0.61,0.3,1.11,0.72,1.48c0.41,0.38,1.02,0.52,1.8,0.44
	c0.71-0.07,1.24-0.32,1.59-0.73c0.35-0.42,0.49-1.02,0.41-1.8l-0.06-0.69c-0.02-0.17-0.08-0.3-0.17-0.39
	c-0.09-0.09-0.23-0.13-0.39-0.11L298.48,150.5z M301.37,154.85c-0.84,0.08-1.5-0.09-2-0.5c-0.5-0.41-0.82-0.9-0.97-1.47l-4.39,2.36
	c-0.17,0.1-0.28,0.21-0.33,0.31c-0.05,0.11-0.07,0.23-0.05,0.36l0.03,0.36l-0.38,0.03l-0.17-1.73l5.13-2.61l-0.14-1.44l-4.47,0.47
	c-0.17,0.02-0.29,0.09-0.36,0.2c-0.07,0.11-0.1,0.25-0.08,0.42l0.03,0.38l-0.37,0.03l-0.3-2.86l0.38-0.03l0.05,0.37
	c0.02,0.21,0.07,0.35,0.16,0.42c0.09,0.07,0.22,0.1,0.39,0.08l8.87-0.92c0.16-0.02,0.28-0.08,0.36-0.17
	c0.08-0.09,0.11-0.24,0.09-0.45l-0.05-0.37l0.37-0.03l0.38,3.55c0.09,0.94-0.04,1.7-0.41,2.27
	C302.8,154.43,302.2,154.76,301.37,154.85z"/>
<path class="st3" d="M293.58,162.39l-0.14-3.25l0.37-0.02l0.03,0.56c0.01,0.21,0.05,0.35,0.14,0.44c0.09,0.08,0.22,0.12,0.39,0.11
	l8.73-0.37c0.33-0.01,0.52-0.04,0.55-0.09c0.04-0.04,0.05-0.21,0.05-0.5c-0.02-0.59-0.14-0.98-0.36-1.2
	c-0.22-0.22-0.79-0.48-1.72-0.77l0.03-0.37l2.41,0.45l0.25,5.94l-2.34,0.61l-0.06-0.31c0.84-0.37,1.38-0.66,1.59-0.86
	c0.23-0.2,0.33-0.59,0.3-1.17c-0.01-0.42-0.04-0.65-0.09-0.69c-0.04-0.03-0.25-0.04-0.62-0.03l-8.67,0.38
	c-0.17,0.01-0.29,0.07-0.38,0.17c-0.07,0.1-0.11,0.24-0.09,0.41l0.02,0.56L293.58,162.39z"/>
<path class="st3" d="M304,166.73l0.38,0l-0.08,5l-0.37,0l0.02-1.44c0-0.17-0.04-0.3-0.13-0.41c-0.07-0.11-0.19-0.16-0.36-0.17
	l-8.94-0.17c-0.17,0-0.3,0.05-0.39,0.16c-0.09,0.1-0.12,0.24-0.12,0.41l-0.02,1.44l-0.38-0.02l0.08-5l0.38,0.02l-0.03,1.44
	c0,0.21,0.04,0.35,0.12,0.44c0.08,0.08,0.21,0.12,0.38,0.12l8.94,0.17c0.16,0.01,0.29-0.03,0.38-0.11c0.08-0.09,0.12-0.23,0.12-0.44
	L304,166.73z"/>
<path class="st3" d="M303.4,180.3 M303.47,179.37l0.37,0.01l-0.17,2.25l-0.38-0.02l0.03-0.25c0.01-0.17-0.04-0.33-0.16-0.48
	c-0.12-0.16-0.34-0.29-0.67-0.41l-9.22-3.33l0.03-0.38l9.58-1.53c0.29-0.02,0.52-0.08,0.67-0.17c0.16-0.09,0.24-0.23,0.25-0.44
	l0.03-0.31l0.38,0.02l-0.2,2.67l-0.38-0.02l0.02-0.23c0.02-0.21-0.03-0.35-0.16-0.42c-0.12-0.07-0.28-0.1-0.5-0.08l-7.42,1.14
	l0,0.12l6.97,2.45c0.16,0.05,0.27,0.08,0.36,0.09c0.13,0.01,0.24-0.01,0.34-0.06c0.11-0.05,0.18-0.2,0.2-0.45L303.47,179.37z"/>
<path class="st3" d="M297.29,189.67c-1.69-0.24-2.98-0.76-3.86-1.56c-0.87-0.8-1.24-1.7-1.11-2.69c0.13-0.95,0.72-1.69,1.8-2.23
	c1.08-0.54,2.45-0.7,4.09-0.45c1.61,0.23,2.87,0.73,3.78,1.51c0.91,0.78,1.29,1.69,1.16,2.72c-0.15,1.07-0.79,1.84-1.92,2.31
	C300.09,189.74,298.77,189.87,297.29,189.67z M298.05,183.9c-1.77-0.25-3.09-0.22-3.95,0.09c-0.86,0.32-1.32,0.82-1.41,1.48
	c-0.09,0.7,0.21,1.3,0.91,1.81c0.71,0.52,1.99,0.91,3.84,1.19c1.49,0.21,2.71,0.2,3.66-0.01c0.96-0.22,1.49-0.74,1.61-1.56
	c0.09-0.71-0.25-1.33-1.02-1.86C300.92,184.52,299.71,184.14,298.05,183.9z"/>
<path class="st3" d="M291.65,189.48"/>
<text transform="matrix(0.9812 -0.1928 0.1907 1.0084 134.7615 36.8294)" class="st4 st5 st6"> </text>
<text transform="matrix(0.7784 0.6272 -0.6083 0.7976 240.8021 59.3993)" class="st4 st5 st7"> </text>
<text transform="matrix(0.6531 0.7659 -0.7437 0.6685 258.6656 75.6942)" class="st4 st5 st8"> </text>
<text transform="matrix(0.3978 0.94 -0.914 0.4057 280.9759 109.5849)" class="st4 st5 st9"> </text>
<text transform="matrix(-0.1931 1.0054 -0.9795 -0.2015 291.6623 189.4981)" class="st4 st5 st10"> </text>
<path class="st11" d="M26.66,166.57c-0.75-0.02-1.32,0.13-1.72,0.45c-0.39,0.32-0.59,0.82-0.59,1.48c0,0.5,0.14,0.93,0.41,1.3
	c0.27,0.36,0.62,0.54,1.03,0.56c0.25,0,0.46-0.08,0.63-0.24c0.17-0.12,0.34-0.19,0.5-0.19c0.21,0.01,0.37,0.07,0.47,0.17
	c0.1,0.11,0.16,0.26,0.16,0.47c0,0.25-0.07,0.45-0.22,0.59c-0.14,0.15-0.38,0.22-0.72,0.2c-0.88-0.02-1.54-0.35-2-0.98
	c-0.46-0.64-0.69-1.32-0.69-2.03c0-1,0.25-1.73,0.75-2.19c0.5-0.47,1.12-0.69,1.87-0.67c0.5,0.01,1,0.14,1.5,0.39
	c0.5,0.24,0.98,0.62,1.44,1.13c1.17,1.24,2.12,2.2,2.84,2.86c0.73,0.66,1.22,1.05,1.47,1.19l0-3.69c0-0.37-0.14-0.69-0.44-0.94
	c-0.29-0.26-0.73-0.44-1.31-0.55l0-0.37l2.69,0.45l0,5.81l-0.81-0.03c-0.37-0.22-0.85-0.57-1.44-1.06c-0.58-0.5-1.27-1.16-2.06-1.97
	c-0.71-0.72-1.37-1.25-2-1.61C27.78,166.76,27.2,166.58,26.66,166.57z"/>
<path class="st11" d="M35.08,160.51c-0.05,0.92-0.57,1.65-1.56,2.2c-0.99,0.54-2.36,0.74-4.11,0.59c-1.61-0.13-2.9-0.55-3.86-1.24
	c-0.97-0.7-1.43-1.52-1.38-2.48c0.06-0.91,0.58-1.62,1.58-2.14c0.99-0.52,2.34-0.71,4.03-0.56c1.71,0.15,3.03,0.56,3.97,1.25
	C34.69,158.82,35.13,159.61,35.08,160.51z M24.67,159.64c-0.03,0.59,0.39,1.12,1.27,1.59c0.87,0.47,2.04,0.77,3.53,0.89
	c1.59,0.14,2.82,0.04,3.72-0.28c0.9-0.32,1.36-0.77,1.39-1.36c0.03-0.61-0.37-1.13-1.22-1.56c-0.85-0.43-2.07-0.71-3.66-0.84
	c-1.49-0.12-2.69-0.05-3.59,0.2C25.2,158.53,24.72,158.98,24.67,159.64z"/>
<path class="st11" d="M27.87,149.55c-0.74-0.1-1.32-0.02-1.75,0.25c-0.43,0.27-0.68,0.74-0.77,1.41c-0.05,0.49,0.04,0.93,0.27,1.33
	c0.22,0.39,0.54,0.61,0.95,0.67c0.24,0.03,0.45-0.02,0.64-0.16c0.18-0.1,0.35-0.14,0.52-0.12c0.21,0.03,0.36,0.11,0.45,0.23
	c0.09,0.12,0.13,0.28,0.11,0.48c-0.03,0.25-0.13,0.44-0.3,0.56c-0.16,0.12-0.41,0.15-0.75,0.09c-0.86-0.13-1.48-0.52-1.86-1.2
	c-0.38-0.69-0.53-1.38-0.45-2.08c0.13-1,0.46-1.7,1.02-2.11c0.54-0.41,1.18-0.55,1.92-0.44c0.5,0.06,0.98,0.25,1.45,0.55
	c0.47,0.3,0.9,0.73,1.3,1.28c1.01,1.37,1.84,2.44,2.5,3.19c0.65,0.74,1.09,1.19,1.31,1.34l0.44-3.67c0.04-0.36-0.07-0.69-0.33-0.98
	c-0.27-0.29-0.69-0.52-1.25-0.69l0.05-0.37l2.61,0.77l-0.67,5.77l-0.8-0.13c-0.35-0.26-0.79-0.66-1.31-1.22
	c-0.52-0.56-1.12-1.29-1.81-2.17c-0.61-0.81-1.21-1.43-1.8-1.84C28.98,149.87,28.42,149.63,27.87,149.55z"/>
<path class="st11" d="M30.14,142.85c0.14-0.78,0.55-1.35,1.23-1.72c0.68-0.38,1.51-0.46,2.48-0.27c1.11,0.22,1.94,0.65,2.5,1.3
	c0.56,0.64,0.75,1.49,0.56,2.56c-0.14,0.74-0.47,1.35-1,1.84c-0.53,0.49-1.1,0.67-1.72,0.55c-0.25-0.05-0.45-0.16-0.61-0.34
	c-0.16-0.19-0.21-0.4-0.16-0.64c0.04-0.25,0.16-0.4,0.34-0.45c0.18-0.05,0.32-0.06,0.44-0.03c0.25,0.04,0.42,0.14,0.52,0.3
	c0.14,0.16,0.29,0.25,0.45,0.28c0.32,0.07,0.61-0.07,0.84-0.42c0.24-0.36,0.39-0.77,0.47-1.22c0.11-0.66-0.06-1.21-0.53-1.67
	c-0.47-0.46-1.19-0.78-2.17-0.98c-0.82-0.16-1.52-0.14-2.08,0.06c-0.56,0.21-0.9,0.62-1.02,1.23c-0.07,0.45-0.05,0.85,0.06,1.22
	c0.11,0.36,0.39,0.73,0.86,1.13l-0.16,0.53l-5.52-1.42l0.89-5.05l0.89,0.37l-0.78,4.42l3.98,1.06c-0.5-0.53-0.77-1-0.83-1.41
	C30.06,143.67,30.07,143.26,30.14,142.85z"/>
<path class="st12" d="M116.99,294.75l0.14,0.06l-0.25,0.69c-0.37,0.13-0.82,0.25-1.34,0.36c-0.52,0.1-1.06,0.16-1.62,0.16
	c-0.55,0-1.09-0.1-1.63-0.3c-1.06-0.41-1.9-1-2.52-1.77c-0.62-0.76-0.98-1.64-1.09-2.66c-0.1-1.02,0.07-2.12,0.52-3.3
	c0.43-1.13,1.04-2.05,1.83-2.73c0.8-0.7,1.69-1.13,2.67-1.31c0.98-0.19,1.96-0.09,2.95,0.28c0.35,0.14,0.73,0.32,1.14,0.55
	c0.41,0.22,0.8,0.45,1.17,0.7c0.38,0.25,0.68,0.48,0.92,0.69l-0.95,2.55l-0.42-0.16l0-1.7c0.01-0.05-0.01-0.11-0.05-0.17
	c-0.03-0.07-0.09-0.14-0.16-0.22c-0.25-0.31-0.6-0.63-1.05-0.95c-0.44-0.33-0.87-0.58-1.31-0.75c-0.94-0.35-1.87-0.24-2.78,0.33
	c-0.92,0.56-1.68,1.65-2.28,3.25c-0.64,1.67-0.76,3.05-0.36,4.16c0.39,1.1,1.26,1.91,2.59,2.41c0.57,0.22,1.1,0.33,1.58,0.33
	c0.48,0,0.91-0.05,1.28-0.16C116.36,294.97,116.7,294.86,116.99,294.75z"/>
<path class="st12" d="M123.53,298.45c0.77,0.22,1.47,0.17,2.11-0.14c0.64-0.31,1.2-0.8,1.67-1.48c0.48-0.7,0.85-1.52,1.12-2.45
	c0.32-1.1,0.47-2.11,0.44-3.03c-0.03-0.91-0.26-1.69-0.67-2.31c-0.42-0.63-1.05-1.06-1.91-1.31c-0.8-0.23-1.53-0.18-2.17,0.14
	c-0.65,0.32-1.2,0.84-1.66,1.53c-0.46,0.7-0.81,1.48-1.06,2.36c-0.31,1.06-0.46,2.06-0.44,2.98c0.02,0.93,0.23,1.71,0.64,2.36
	C122.02,297.75,122.66,298.2,123.53,298.45z M123.2,298.98c-1.12-0.32-1.99-0.85-2.63-1.58c-0.64-0.73-1.03-1.6-1.17-2.61
	c-0.14-1.01-0.04-2.09,0.3-3.25c0.31-1.09,0.8-2.02,1.47-2.78c0.68-0.77,1.48-1.31,2.42-1.61c0.94-0.31,1.95-0.31,3.05,0
	c1.18,0.34,2.07,0.9,2.69,1.66c0.61,0.76,0.98,1.64,1.09,2.64c0.11,1,0.02,2.04-0.28,3.11c-0.21,0.72-0.52,1.4-0.92,2.05
	c-0.4,0.63-0.89,1.18-1.48,1.62c-0.59,0.46-1.26,0.76-2.02,0.91C124.96,299.3,124.12,299.24,123.2,298.98z"/>
<path class="st12" d="M139.51,300.15l0.16,0.03l-0.14,0.7c-0.36,0.2-0.78,0.39-1.27,0.58c-0.49,0.19-1.01,0.32-1.56,0.41
	c-0.55,0.09-1.11,0.08-1.66-0.03c-1.13-0.22-2.06-0.66-2.78-1.31c-0.72-0.66-1.22-1.47-1.5-2.45c-0.28-0.99-0.29-2.1-0.03-3.34
	c0.24-1.19,0.69-2.19,1.36-3c0.67-0.81,1.48-1.39,2.42-1.73c0.95-0.34,1.94-0.41,2.99-0.19c0.36,0.07,0.77,0.19,1.2,0.34
	s0.86,0.33,1.27,0.52c0.41,0.19,0.75,0.37,1.02,0.53l-0.53,2.67l-0.44-0.09l-0.25-1.66c-0.01-0.07-0.04-0.13-0.09-0.19
	c-0.04-0.06-0.11-0.13-0.19-0.2c-0.29-0.25-0.68-0.5-1.17-0.75c-0.49-0.26-0.97-0.44-1.42-0.53c-0.99-0.21-1.89,0.04-2.7,0.75
	c-0.81,0.71-1.39,1.91-1.73,3.59c-0.36,1.74-0.25,3.13,0.31,4.16c0.57,1.03,1.55,1.69,2.95,1.97c0.59,0.12,1.13,0.14,1.61,0.06
	c0.48-0.07,0.89-0.19,1.25-0.34C138.93,300.47,139.24,300.32,139.51,300.15z"/>
<path class="st12" d="M140.86,302.57l0.05-0.41l1.09-0.09c0.11-0.02,0.21-0.07,0.3-0.16c0.09-0.08,0.15-0.19,0.17-0.31l1.09-9.42
	c0.02-0.13-0.01-0.25-0.08-0.36c-0.06-0.1-0.15-0.17-0.27-0.2l-1.03-0.34l0.05-0.41l4.48,0.53l-0.05,0.41l-1.11,0.09
	c-0.12,0-0.22,0.05-0.31,0.14c-0.09,0.09-0.14,0.2-0.16,0.33l-0.48,4.14l5.69,0.66l0.48-4.14c0.02-0.13,0-0.25-0.06-0.34
	c-0.06-0.1-0.16-0.18-0.28-0.22l-1.03-0.34l0.05-0.41l4.48,0.53l-0.05,0.41l-1.13,0.09c-0.12,0.01-0.22,0.06-0.31,0.16
	c-0.09,0.09-0.14,0.19-0.16,0.31l-1.09,9.42c-0.02,0.13,0,0.25,0.08,0.34c0.07,0.1,0.16,0.18,0.27,0.22l1.06,0.34l-0.05,0.41
	l-4.48-0.53l0.05-0.41l1.09-0.09c0.11-0.01,0.21-0.06,0.3-0.16c0.09-0.09,0.15-0.19,0.17-0.31l0.53-4.61l-5.69-0.66l-0.53,4.61
	c-0.02,0.14,0,0.25,0.06,0.34c0.06,0.09,0.16,0.17,0.28,0.22l1.05,0.34l-0.05,0.41L140.86,302.57z"/>
<path class="st12" d="M155.7,299.66l0.28-0.66l3.86,0.14l0.25,0.66L155.7,299.66z M152.48,303.92l0.02-0.41l0.73-0.17
	c0.24-0.07,0.41-0.24,0.52-0.5l3.7-8.77l1.11-1.92l0.33,0.02l3.81,10.97c0.04,0.12,0.1,0.23,0.19,0.33c0.08,0.09,0.18,0.16,0.3,0.2
	l0.74,0.23l-0.02,0.41l-4.16-0.14l0.02-0.41l1.48-0.23l-2.8-8.06l-0.41-1.16l-3.66,8.95l1.44,0.36l-0.01,0.41L152.48,303.92z"/>
<path class="st12" d="M166.62,298.39l0.2,5.14l1.81-0.06c0.91-0.04,1.58-0.26,2.02-0.66c0.44-0.41,0.66-1.03,0.62-1.89
	c-0.04-1-0.33-1.69-0.86-2.08c-0.53-0.38-1.36-0.55-2.47-0.5L166.62,298.39z M166.4,293.01l0.2,4.78l0.78-0.03
	c1.14-0.04,1.93-0.27,2.36-0.69c0.44-0.41,0.64-0.97,0.61-1.66c-0.04-0.91-0.31-1.55-0.8-1.92c-0.48-0.38-1.18-0.56-2.11-0.53
	L166.4,293.01z M163.84,304.28l-0.02-0.41l1.06-0.27c0.11-0.03,0.21-0.09,0.28-0.19c0.08-0.1,0.12-0.22,0.11-0.34l-0.37-9.48
	c-0.01-0.13-0.06-0.24-0.14-0.33c-0.09-0.09-0.18-0.15-0.3-0.17l-1.08-0.17l-0.02-0.41l4.25-0.17c1.14-0.04,2.02,0.05,2.64,0.28
	c0.62,0.22,1.05,0.52,1.3,0.91c0.25,0.39,0.38,0.8,0.39,1.23c0.03,0.74-0.18,1.38-0.62,1.91c-0.44,0.52-1.03,0.9-1.78,1.14
	c0.6-0.01,1.16,0.09,1.67,0.31c0.51,0.21,0.91,0.52,1.22,0.92c0.31,0.41,0.48,0.9,0.5,1.47c0.03,0.67-0.09,1.23-0.34,1.69
	c-0.25,0.45-0.6,0.81-1.05,1.08c-0.45,0.27-0.95,0.47-1.52,0.59c-0.55,0.13-1.11,0.2-1.67,0.22L163.84,304.28z"/>
<path class="st12" d="M175.66,299.25l0.19-0.69l3.83-0.44l0.34,0.62L175.66,299.25z M173.12,303.95l-0.05-0.41l0.72-0.3
	c0.22-0.09,0.36-0.29,0.44-0.58l2.34-9.19l0.81-2.06l0.33-0.03l5.41,10.27c0.05,0.1,0.12,0.2,0.22,0.28
	c0.1,0.09,0.22,0.14,0.34,0.17l0.74,0.13l0.05,0.41l-4.13,0.47l-0.05-0.41l1.45-0.45l-3.97-7.53l-0.58-1.09l-2.3,9.39l1.48,0.14
	l0.05,0.41L173.12,303.95z"/>
<path class="st12" d="M185.41,302.7l-0.08-0.39l1-0.5c0.1-0.06,0.18-0.14,0.23-0.25c0.06-0.11,0.08-0.22,0.05-0.33l-1.92-9.27
	c-0.03-0.13-0.09-0.22-0.17-0.3c-0.09-0.08-0.2-0.12-0.33-0.11h-1.11l-0.08-0.39l3.44-0.72l4.23,6.87l0.94,1.58l1.41-9.83l3.39-0.7
	l0.08,0.39l-1.02,0.44c-0.09,0.04-0.17,0.12-0.23,0.23c-0.06,0.12-0.07,0.23-0.05,0.34l1.94,9.31c0.03,0.13,0.09,0.23,0.19,0.3
	c0.09,0.07,0.19,0.12,0.31,0.13l1.11,0l0.08,0.39l-4.42,0.92l-0.08-0.39l1.02-0.44c0.09-0.05,0.17-0.13,0.23-0.23
	c0.06-0.11,0.08-0.23,0.05-0.34l-2-9.61l-0.17,1.34l-1.17,8.12l-0.45,2.08l-0.36,0.08l-5.37-8.72l-0.74-1.2l1.98,9.58
	c0.03,0.13,0.09,0.23,0.19,0.3c0.09,0.06,0.2,0.09,0.33,0.09l1.11,0.06l0.08,0.39L185.41,302.7z"/>
<path class="st12" d="M201.8,293.21l1.48,4.92l1.72-0.53c0.87-0.26,1.47-0.64,1.8-1.14c0.33-0.5,0.38-1.16,0.13-1.98
	c-0.29-0.95-0.75-1.54-1.36-1.78c-0.61-0.24-1.44-0.2-2.5,0.13L201.8,293.21z M200.22,288.05l1.39,4.59l0.73-0.22
	c1.1-0.33,1.81-0.75,2.13-1.27c0.31-0.51,0.37-1.09,0.17-1.75c-0.27-0.88-0.69-1.44-1.25-1.69c-0.56-0.25-1.29-0.24-2.17,0.03
	L200.22,288.05z M200.58,299.6l-0.12-0.39l0.97-0.51c0.09-0.06,0.16-0.14,0.22-0.25c0.05-0.11,0.06-0.23,0.03-0.36l-2.77-9.08
	c-0.04-0.13-0.11-0.23-0.22-0.3c-0.1-0.07-0.21-0.1-0.33-0.09l-1.09,0.11l-0.12-0.39l4.06-1.23c1.09-0.33,1.97-0.47,2.63-0.41
	c0.66,0.06,1.15,0.25,1.48,0.56c0.34,0.31,0.58,0.67,0.7,1.09c0.22,0.71,0.18,1.37-0.13,2c-0.29,0.62-0.77,1.13-1.44,1.55
	c0.58-0.14,1.14-0.18,1.69-0.09c0.55,0.07,1.03,0.27,1.44,0.58c0.41,0.31,0.69,0.74,0.86,1.28c0.19,0.65,0.21,1.22,0.08,1.72
	c-0.12,0.5-0.37,0.94-0.75,1.31c-0.37,0.37-0.8,0.7-1.31,0.97c-0.5,0.26-1.02,0.47-1.56,0.62L200.58,299.6z"/>
<path class="st12" d="M210.74,291.75l0.02-0.7l3.59-1.41l0.48,0.52L210.74,291.75z M209.47,296.94l-0.14-0.37l0.61-0.45
	c0.18-0.16,0.27-0.38,0.28-0.66l-0.06-9.5l0.27-2.2l0.31-0.12l7.83,8.58c0.07,0.09,0.16,0.16,0.28,0.22
	c0.11,0.05,0.24,0.08,0.38,0.08l0.75-0.08l0.14,0.38l-3.88,1.52l-0.14-0.37l1.28-0.81l-5.77-6.28l-0.81-0.91l0.16,9.66l1.48-0.23
	l0.14,0.37L209.47,296.94z"/>
<text transform="matrix(1 0 0 1 166.4034 78.2176)" class="st5 st13">P</text>
<text transform="matrix(1 0 0 1 184.4586 96.5311)" class="st5 st14">C</text>
<text transform="matrix(1 0 0 1 212.724 112.1403)" class="st5 st15">D</text>
</svg>
